<svg xmlns="http://www.w3.org/2000/svg" xmlns:xlink="http://www.w3.org/1999/xlink" viewBox="0,0,256,256" width="512px" height="512px"><g fill="#bf0f30" fill-rule="nonzero" stroke="none" stroke-width="1" stroke-linecap="butt" stroke-linejoin="miter" stroke-miterlimit="10" stroke-dasharray="" stroke-dashoffset="0" font-family="none" font-weight="none" font-size="none" text-anchor="none" style="mix-blend-mode: normal"><g transform="scale(4,4)"><path d="M48,7h-32c-4.418,0 -8,3.582 -8,8v32c0,4.418 3.582,8 8,8h17v-17h-6v-7h6v-5c0,-7 4,-11 10,-11c3.133,0 5,1 5,1v6h-4c-2.86,0 -4,2.093 -4,4v5h7l-1,7h-6v17h8c4.418,0 8,-3.582 8,-8v-32c0,-4.418 -3.582,-8 -8,-8z"></path></g></g></svg>