<svg xmlns="http://www.w3.org/2000/svg" xmlns:xlink="http://www.w3.org/1999/xlink" viewBox="0,0,256,256" width="512px" height="512px"><g fill="#bf0f30" fill-rule="nonzero" stroke="none" stroke-width="1" stroke-linecap="butt" stroke-linejoin="miter" stroke-miterlimit="10" stroke-dasharray="" stroke-dashoffset="0" font-family="none" font-weight="none" font-size="none" text-anchor="none" style="mix-blend-mode: normal"><g transform="scale(4,4)"><path d="M21.58008,7c-8.039,0 -14.58008,6.54494 -14.58008,14.58594v20.83203c0,8.04 6.54494,14.58203 14.58594,14.58203h20.83203c8.04,0 14.58203,-6.54494 14.58203,-14.58594v-20.83398c0,-8.039 -6.54494,-14.58008 -14.58594,-14.58008zM47,15c1.104,0 2,0.896 2,2c0,1.104 -0.896,2 -2,2c-1.104,0 -2,-0.896 -2,-2c0,-1.104 0.896,-2 2,-2zM32,19c7.17,0 13,5.83 13,13c0,7.17 -5.831,13 -13,13c-7.17,0 -13,-5.831 -13,-13c0,-7.169 5.83,-13 13,-13zM32,23c-4.971,0 -9,4.029 -9,9c0,4.971 4.029,9 9,9c4.971,0 9,-4.029 9,-9c0,-4.971 -4.029,-9 -9,-9z"></path></g></g></svg>